<svg id="Layer_1" data-name="Layer 1" xmlns="http://www.w3.org/2000/svg" viewBox="0 0 2026.9 382.13"><defs><style>.cls-1{fill:#000000;}.cls-2{fill:#ed1c24;stroke:#231f20;stroke-miterlimit:10;stroke-width:0.32px;}.cls-3,.cls-4{fill:#fff;}.cls-4{stroke:#fff;stroke-width:0.99px;}</style></defs><title>MadHouseLogo</title><rect class="cls-1" x="0.16" y="0.16" width="2026.59" height="381.97"/><rect class="cls-2" x="0.16" y="0.16" width="2026.59" height="246.46"/><path class="cls-3" d="M364.65,95.62q8.6-11.45,19.19-16.92A51.92,51.92,0,0,1,408,73.21q13.59,0,23.48,5.67a39.63,39.63,0,0,1,15.62,16.74q9.41-11.69,20.61-17.16A56.7,56.7,0,0,1,493,73q22.89,0,35.52,11.79t12.64,33.14v64.36q0,12-6.92,19.07t-18.47,7q-11.68,0-18.54-7.21t-6.85-19.61v-44.7q0-12.39-4.17-17.76t-13.71-5.36q-9.06,0-13.41,5.78t-4.35,17.82v44.93q0,12.4-6.73,19.25t-18.65,6.86q-11.69,0-18.42-7.21t-6.73-19.61V138.65q0-13.35-4.24-19.13t-13.88-5.78q-8.58,0-13.05,5.84t-4.47,17v45.65q0,11.8-7.09,19T343,208.38q-11.68,0-18.41-7.21t-6.74-19.61V99.08q0-12.27,6-18.6t17.4-6.31q10.74,0,16.75,5.54T364.65,95.62Z"/><path class="cls-3" d="M711,178.1q0,2,.24,6.5t.23,7q0,8.34-5.6,12.69t-16.33,4.35q-11.2,0-17.34-5.06t-7.81-15.67a53.44,53.44,0,0,1-20.79,17.28q-12.35,5.72-29,5.72-21.93,0-33.91-10.79t-12-30.45q0-19.3,12-28.73t42.08-12.75c2.46-.32,5.8-.67,10-1.07q27.88-2.86,27.89-13.11a9.09,9.09,0,0,0-4.41-8.17Q651.9,103,643.68,103a52.57,52.57,0,0,0-11.8,1.19,29,29,0,0,0-9.06,3.7c-1.12.71-2.82,2-5.13,3.81q-12.27,9.54-23.36,9.54a13.65,13.65,0,0,1-10.25-4.71,15.75,15.75,0,0,1-4.41-11.14q0-14.43,17.88-23.9T643.91,72a141.35,141.35,0,0,1,29.68,2.86q13.23,2.87,20.86,8.11,9.18,6.2,12.87,14t3.7,22.35Zm-50.78-29.68a56.21,56.21,0,0,1-9.35,3.4q-5.07,1.37-12.82,2.68-10.37,1.68-14.12,4.59t-3.76,8.52q0,6,3.94,9.12t11.2,3.16q13.35,0,19.25-5.9t5.9-19.25q0-2.51-.06-3.87C660.38,150,660.32,149.14,660.24,148.42Z"/><path class="cls-3" d="M882.89,55.1V184.54q0,12.75-5.84,19.55t-16.93,6.79q-9.9,0-15.79-5.36T837,189.9a42.72,42.72,0,0,1-15.85,15.79q-9.42,5.19-22.29,5.19-28.14,0-44-18.24T739,142q0-31.47,15.38-50.24T795.52,73a46.62,46.62,0,0,1,20,4.35,53.68,53.68,0,0,1,17.05,12.93V54.38q0-11.91,6.79-19t18.36-7.09q11.44,0,18.29,7.27T882.89,55.1Zm-71,57.68q-10.85,0-15.91,7.28t-5.07,22.76q0,14.19,5.48,22.05t15.5,7.87a18.07,18.07,0,0,0,15.55-7.93q5.67-7.92,5.66-22,0-15.25-5.24-22.65T811.85,112.78Z"/><path class="cls-3" d="M967,182.27q0,11.8-7.09,19t-18.77,7.15q-11.92,0-18.78-7.15t-6.85-19.67V54.86q0-12.16,6.85-19.37t18.54-7.21q11.91,0,19,7T967,54.14V90.5a48.72,48.72,0,0,1,17.82-13.06q10.06-4.23,23.42-4.23,14.41,0,25.15,6a38.38,38.38,0,0,1,16.09,17.11A53.85,53.85,0,0,1,1054,112q1.31,8.94,1.31,26.94v40.76q0,14.19-6.44,21.46t-19,7.27q-12.63,0-19.37-7.39t-6.73-21.34V139.13q0-14.79-3.93-20.33t-13.59-5.54q-9.9,0-14.6,6.32T967,139.36Z"/><path class="cls-3" d="M1080.26,141.27q0-32.18,19.6-50.71T1153.56,72q34,0,53.57,18.54t19.61,50.71q0,32.43-19.55,51t-53.63,18.59q-34.1,0-53.7-18.59T1080.26,141.27Zm52.08,0q0,18,5,25.87t16.27,7.86q11.32,0,16.39-7.92t5.06-25.81q0-17.76-5.06-25.56t-16.39-7.81q-11.32,0-16.27,7.75T1132.34,141.27Z"/><path class="cls-3" d="M1340.09,100.27q0-11.8,7.09-19T1366,74.17q11.92,0,18.77,7.21t6.86,19.6v82.6q0,12.16-6,18.48t-17.7,6.32q-11.2,0-17.16-6t-6.2-17.58q-7.87,12.51-19.07,18.59t-26.58,6.08q-14.55,0-25.21-6a38,38,0,0,1-16-17.05,52,52,0,0,1-4.53-15.61q-1.32-9.06-1.31-27.06V103q0-14.3,6.43-21.57t19-7.27q12.64,0,19.37,7.39t6.74,21.45v40.53q0,14.78,3.93,20.44t13.59,5.66q9.65,0,14.48-6.56t4.83-19.78Z"/><path class="cls-3" d="M1479.3,210.88q-29.33,0-46.91-8.58t-17.58-22.41a16.54,16.54,0,0,1,5-12.28,17.18,17.18,0,0,1,12.58-4.88q8.46,0,19.07,8.58c.47.4.87.71,1.19.95q7.62,6,13.29,8.11a34.49,34.49,0,0,0,12.33,2.14q8.94,0,14-3t5.06-8.4q0-8.7-18.83-12.87c-1.19-.24-2.1-.44-2.74-.6q-34.92-7.51-46.48-16.45t-11.56-25.5q0-20.62,16.8-32.13t47-11.5q28.26,0,44.52,7.63t16.27,20.62a12.8,12.8,0,0,1-4.35,10.13q-4.35,3.81-11.5,3.82-7.52,0-18.24-6.2c-1.67-1-2.94-1.67-3.81-2.15a45.58,45.58,0,0,0-10.73-4.47,44.35,44.35,0,0,0-11.2-1.37q-7.28,0-11,2.39a7.94,7.94,0,0,0-3.69,7.15q0,7,18.23,11.2c2.94.64,5.2,1.15,6.8,1.55q34.08,7.88,44.81,17.1t10.73,26.76q0,20.63-18.48,32.66T1479.3,210.88Z"/><path class="cls-3" d="M1618.15,152.83q.46,13.11,6.91,19.49t19.43,6.38a34.73,34.73,0,0,0,9.36-1.25,50.07,50.07,0,0,0,9.83-4.12q1.66-.95,4.77-3,10.24-6.56,17.28-6.55a16.93,16.93,0,0,1,11.74,4.11,13.53,13.53,0,0,1,4.59,10.55q0,13.95-17.58,23.18t-45.35,9.24q-33.37,0-53-18.48t-19.61-49.94q0-32.66,20-51.55T1641,72a72.74,72.74,0,0,1,27.66,5.19,67,67,0,0,1,22.88,15.55,62.92,62.92,0,0,1,12.81,19.43,56,56,0,0,1,4.71,22.05q0,9.78-5.3,14.12t-17.11,4.35Zm0-26H1664q-.84-11.92-6.74-18t-16.74-6.08q-10.14,0-16,6.38T1618.15,126.85Z"/><path class="cls-4" d="M321.44,341V278.85h8.23v25.54H362V278.85h8.23V341H362V311.73H329.67V341Z"/><path class="cls-4" d="M382.41,310.75q0-15.48,8.32-24.24t21.46-8.76a29.82,29.82,0,0,1,15.53,4.11,26.91,26.91,0,0,1,10.54,11.48A37.22,37.22,0,0,1,441.89,310,36.73,36.73,0,0,1,438.07,327a26.11,26.11,0,0,1-10.82,11.3,30.91,30.91,0,0,1-15.1,3.84,29.39,29.39,0,0,1-15.7-4.24A27.35,27.35,0,0,1,386,326.28,35.2,35.2,0,0,1,382.41,310.75Zm8.49.13q0,11.24,6,17.71a21.08,21.08,0,0,0,30.46-.07q6-6.52,6-18.53a31.72,31.72,0,0,0-2.57-13.26,19.7,19.7,0,0,0-7.5-8.78,20.38,20.38,0,0,0-11.1-3.12,21.06,21.06,0,0,0-15,6Q390.89,296.84,390.9,310.88Z"/><path class="cls-4" d="M453.66,341V278.85h12.39l14.72,44q2,6.15,3,9.21,1-3.39,3.31-10l14.89-43.27H513V341h-7.93V289L487,341h-7.42l-18-52.94V341Z"/><path class="cls-4" d="M527.93,341V278.85h45v7.34H536.16v19h34.41v7.3H536.16V333.7h38.18V341Z"/><path class="cls-4" d="M598,341l-16.5-62.19H590l9.46,40.77q1.53,6.4,2.63,12.72c1.59-6.64,2.52-10.48,2.8-11.49l11.84-42h9.92l8.91,31.48a165.73,165.73,0,0,1,4.84,22q1.18-5.89,3.1-13.53l9.75-40h8.28L644.42,341h-7.93l-13.11-47.39c-1.1-3.95-1.75-6.39-2-7.29-.65,2.85-1.26,5.29-1.83,7.29L606.41,341Z"/><path class="cls-4" d="M659.72,341l23.88-62.19h8.87L717.92,341h-9.38l-7.25-18.84h-26L668.46,341Zm17.94-25.54h21.08l-6.49-17.22q-3-7.84-4.41-12.9a79.24,79.24,0,0,1-3.35,11.88Z"/><path class="cls-4" d="M726.34,341V278.85h27.58q8.31,0,12.64,1.67a13.82,13.82,0,0,1,6.91,5.92,17.64,17.64,0,0,1,2.59,9.38A15.65,15.65,0,0,1,771.77,307q-4.28,4.53-13.23,5.76a21.29,21.29,0,0,1,5,3.1,42.64,42.64,0,0,1,6.83,8.27L781.15,341H770.8l-8.23-12.94q-3.6-5.6-5.94-8.57a19,19,0,0,0-4.18-4.16,12.36,12.36,0,0,0-3.75-1.65,24.52,24.52,0,0,0-4.58-.3h-9.55V341Zm8.23-34.74h17.69a26.44,26.44,0,0,0,8.82-1.17,9.36,9.36,0,0,0,4.84-3.73,10.11,10.11,0,0,0,1.65-5.58,9.27,9.27,0,0,0-3.2-7.26c-2.13-1.89-5.51-2.84-10.11-2.84H734.57Z"/><path class="cls-4" d="M790.12,341V278.85h45v7.34H798.35v19h34.4v7.3h-34.4V333.7h38.17V341Z"/><path class="cls-4" d="M843.86,321.06l7.76-.68a17.26,17.26,0,0,0,2.57,7.66,14,14,0,0,0,6.26,4.83,23.67,23.67,0,0,0,9.54,1.85,23,23,0,0,0,8.32-1.4,11.47,11.47,0,0,0,5.36-3.84,8.87,8.87,0,0,0,1.76-5.33,8.1,8.1,0,0,0-1.69-5.11,12.69,12.69,0,0,0-5.6-3.67,109.32,109.32,0,0,0-11.08-3q-8.56-2.05-12-3.88a16.93,16.93,0,0,1-6.64-5.79,14.18,14.18,0,0,1-2.18-7.74,15.84,15.84,0,0,1,2.67-8.81,16.56,16.56,0,0,1,7.8-6.21,29.75,29.75,0,0,1,11.42-2.12A31.08,31.08,0,0,1,880.32,280a17.55,17.55,0,0,1,8.12,6.55,18.75,18.75,0,0,1,3.06,9.8l-7.89.59q-.65-5.9-4.31-8.9t-10.84-3q-7.46,0-10.88,2.74a8.21,8.21,0,0,0-3.41,6.6,7.07,7.07,0,0,0,2.42,5.51Q859,302,869,304.32t13.77,4a18.89,18.89,0,0,1,8,6.34,15.5,15.5,0,0,1,2.59,8.85,16.87,16.87,0,0,1-2.85,9.35,18.67,18.67,0,0,1-8.16,6.83,28.42,28.42,0,0,1-12,2.44,35.76,35.76,0,0,1-14.14-2.46,19.86,19.86,0,0,1-9-7.4A21,21,0,0,1,843.86,321.06Z"/><path class="cls-4" d="M1016.55,316.65v-7.3l26.34,0v23.08a46.6,46.6,0,0,1-12.51,7.27,37,37,0,0,1-13.24,2.44,35.38,35.38,0,0,1-16.65-3.92,25.93,25.93,0,0,1-11.3-11.35,35.68,35.68,0,0,1-3.82-16.59,38.53,38.53,0,0,1,3.79-16.95,25.25,25.25,0,0,1,10.93-11.68,34.16,34.16,0,0,1,16.41-3.82,32.65,32.65,0,0,1,12.2,2.18,20.34,20.34,0,0,1,8.55,6.09,27.17,27.17,0,0,1,4.71,10.18l-7.43,2a23,23,0,0,0-3.47-7.47,14.34,14.34,0,0,0-5.94-4.35,22,22,0,0,0-8.57-1.63,25.15,25.15,0,0,0-9.76,1.72,18.12,18.12,0,0,0-6.64,4.52,21.35,21.35,0,0,0-3.92,6.15,32.38,32.38,0,0,0-2.38,12.51,30.37,30.37,0,0,0,2.87,13.92,18.27,18.27,0,0,0,8.33,8.31,25.81,25.81,0,0,0,11.62,2.72,27.63,27.63,0,0,0,10.44-2.06,27,27,0,0,0,7.72-4.39V316.65Z"/><path class="cls-4" d="M1057.23,341V278.85h8.23V341Z"/><path class="cls-4" d="M1081,341V278.85h42v7.34h-33.73v19.26h29.19v7.34h-29.19V341Z"/><path class="cls-4" d="M1151.51,341V286.19H1131v-7.34h49.29v7.34h-20.57V341Z"/><path class="cls-4" d="M1185.83,321.06l7.76-.68a17.13,17.13,0,0,0,2.57,7.66,14,14,0,0,0,6.25,4.83,23.72,23.72,0,0,0,9.55,1.85,22.9,22.9,0,0,0,8.31-1.4,11.5,11.5,0,0,0,5.37-3.84,8.94,8.94,0,0,0,1.76-5.33,8.11,8.11,0,0,0-1.7-5.11,12.57,12.57,0,0,0-5.6-3.67,109.66,109.66,0,0,0-11.07-3q-8.57-2.05-12-3.88a16.86,16.86,0,0,1-6.64-5.79,14.19,14.19,0,0,1-2.19-7.74,15.77,15.77,0,0,1,2.68-8.81,16.56,16.56,0,0,1,7.8-6.21,29.69,29.69,0,0,1,11.41-2.12,31.09,31.09,0,0,1,12.2,2.23,17.55,17.55,0,0,1,8.12,6.55,18.74,18.74,0,0,1,3,9.8l-7.88.59q-.64-5.9-4.31-8.9t-10.84-3q-7.47,0-10.88,2.74a8.19,8.19,0,0,0-3.42,6.6,7.07,7.07,0,0,0,2.42,5.51q2.39,2.16,12.41,4.43t13.77,4a18.8,18.8,0,0,1,8,6.34,15.43,15.43,0,0,1,2.59,8.85,16.94,16.94,0,0,1-2.84,9.35,18.7,18.7,0,0,1-8.17,6.83,28.34,28.34,0,0,1-12,2.44,35.82,35.82,0,0,1-14.15-2.46,19.84,19.84,0,0,1-9-7.4A21,21,0,0,1,1185.83,321.06Z"/><path class="cls-4" d="M1347.19,341l-24.1-62.19H1332L1348.16,324q2,5.43,3.27,10.18,1.44-5.08,3.35-10.18l16.8-45.18h8.4L1355.63,341Z"/><path class="cls-4" d="M1376.2,341l23.89-62.19H1409L1434.41,341H1425l-7.25-18.84h-26L1384.94,341Zm18-25.54h21.08l-6.49-17.22q-3-7.84-4.41-12.9a79.24,79.24,0,0,1-3.35,11.88Z"/><path class="cls-4" d="M1442.83,341V278.85h27.57q8.32,0,12.64,1.67a13.84,13.84,0,0,1,6.92,5.92,17.73,17.73,0,0,1,2.59,9.38,15.65,15.65,0,0,1-4.29,11.16q-4.29,4.53-13.23,5.76a21.5,21.5,0,0,1,5,3.1,43,43,0,0,1,6.83,8.27L1497.64,341h-10.35l-8.23-12.94q-3.61-5.6-5.94-8.57a19,19,0,0,0-4.18-4.16,12.36,12.36,0,0,0-3.75-1.65,24.64,24.64,0,0,0-4.59-.3h-9.54V341Zm8.23-34.74h17.69a26.44,26.44,0,0,0,8.82-1.17,9.44,9.44,0,0,0,4.84-3.73,10.11,10.11,0,0,0,1.65-5.58,9.3,9.3,0,0,0-3.2-7.26q-3.21-2.83-10.12-2.84h-19.68Z"/><path class="cls-4" d="M1507.16,341V278.85h8.23V341Z"/><path class="cls-4" d="M1530.81,341V278.85h45v7.34H1539v19h34.4v7.3H1539V333.7h38.18V341Z"/><path class="cls-4" d="M1605.32,341V286.19h-20.49v-7.34h49.3v7.34h-20.58V341Z"/><path class="cls-4" d="M1664.4,341V314.7l-24-35.85h10l12.26,18.75q3.39,5.26,6.32,10.52,2.81-4.87,6.79-11l12-18.28h9.59l-24.82,35.85V341Z"/></svg>