<svg id="Layer_1" data-name="Layer 1" xmlns="http://www.w3.org/2000/svg" viewBox="0 0 2094.33 413.26" preserveAspectRatio="xMinYMin meet"><defs><style>.cls-1{fill:#231f20;}.cls-2{fill:#ed1c24;stroke:#231f20;stroke-miterlimit:10;stroke-width:0.32px;}.cls-3,.cls-4{fill:#fff;}.cls-4{stroke:#fff;stroke-width:0.99px;}</style></defs><title>MadHouseLogo</title><rect class="cls-1" width="2094.33" height="413.26"/><rect class="cls-2" x="32.43" y="31.29" width="2026.59" height="246.46"/><path class="cls-3" d="M396.92,126.75q8.58-11.44,19.19-16.92a51.92,51.92,0,0,1,24.2-5.49q13.59,0,23.48,5.66a39.7,39.7,0,0,1,15.61,16.75q9.42-11.69,20.62-17.16a56.7,56.7,0,0,1,25.27-5.49q22.89,0,35.52,11.8T573.45,149V213.4q0,12-6.92,19.07t-18.47,7q-11.68,0-18.54-7.21t-6.85-19.6V168q0-12.39-4.17-17.76t-13.71-5.36q-9.06,0-13.41,5.78T487,168.47V213.4q0,12.4-6.73,19.25t-18.66,6.85q-11.67,0-18.41-7.21t-6.73-19.6V169.78q0-13.35-4.24-19.13t-13.88-5.78q-8.58,0-13.05,5.84t-4.47,17V213.4q0,11.81-7.09,18.95t-18.54,7.15q-11.69,0-18.41-7.21t-6.74-19.6V130.21q0-12.29,6-18.6t17.4-6.31q10.72,0,16.75,5.54T396.92,126.75Z"/><path class="cls-3" d="M743.29,209.23q0,2,.24,6.5t.23,7q0,8.34-5.6,12.69t-16.33,4.35q-11.21,0-17.34-5.06T696.68,219a53.34,53.34,0,0,1-20.8,17.29q-12.33,5.72-29,5.72-21.93,0-33.91-10.79t-12-30.45q0-19.32,12-28.73t42.08-12.75c2.46-.32,5.79-.67,10-1.07Q693,155.36,693,145.11a9.09,9.09,0,0,0-4.41-8.17q-4.41-2.81-12.64-2.8a52.7,52.7,0,0,0-11.8,1.19,29,29,0,0,0-9,3.7q-1.68,1.07-5.13,3.81-12.27,9.54-23.36,9.54a13.65,13.65,0,0,1-10.25-4.71,15.77,15.77,0,0,1-4.41-11.15q0-14.42,17.88-23.89t46.36-9.48A140.68,140.68,0,0,1,705.86,106q13.23,2.86,20.86,8.11,9.18,6.19,12.87,14t3.7,22.35Zm-50.78-29.68a56.21,56.21,0,0,1-9.35,3.4q-5.07,1.37-12.82,2.68-10.37,1.67-14.12,4.59t-3.76,8.52q0,6,3.94,9.12T667.6,211q13.35,0,19.25-5.9t5.9-19.25q0-2.51-.06-3.87C692.65,181.08,692.59,180.27,692.51,179.55Z"/><path class="cls-3" d="M915.16,86.23V215.67q0,12.75-5.84,19.54T892.39,242q-9.9,0-15.79-5.37T869.27,221a42.79,42.79,0,0,1-15.85,15.79Q844,242,831.13,242q-28.14,0-44-18.24t-15.85-50.65q0-31.47,15.38-50.24t41.12-18.78a46.62,46.62,0,0,1,20,4.35,53.86,53.86,0,0,1,17.05,12.94V85.51q0-11.91,6.79-19T890,59.41q11.43,0,18.29,7.27T915.16,86.23Zm-71,57.68q-10.85,0-15.91,7.27T823.14,174q0,14.19,5.48,22.05t15.5,7.87a18.09,18.09,0,0,0,15.55-7.93q5.67-7.92,5.66-22,0-15.25-5.24-22.65T844.12,143.91Z"/><path class="cls-3" d="M999.3,213.4q0,11.81-7.09,18.95t-18.78,7.15q-11.91,0-18.77-7.15t-6.85-19.66V86q0-12.17,6.85-19.37t18.54-7.21q11.91,0,19,7t7.09,18.83v36.35a48.81,48.81,0,0,1,17.82-13.05q10.06-4.23,23.42-4.23,14.42,0,25.15,6a38.4,38.4,0,0,1,16.09,17.1,54.33,54.33,0,0,1,4.53,15.62q1.31,8.94,1.31,26.94v40.76q0,14.19-6.44,21.45t-19,7.27q-12.63,0-19.37-7.39t-6.73-21.33V170.25q0-14.77-3.93-20.32t-13.59-5.54q-9.9,0-14.6,6.32t-4.71,19.78Z"/><path class="cls-3" d="M1112.53,172.4q0-32.18,19.6-50.72t53.7-18.53q34,0,53.57,18.53T1259,172.4q0,32.41-19.55,51T1185.83,242q-34.1,0-53.7-18.6T1112.53,172.4Zm52.08,0q0,18,5,25.86t16.27,7.87q11.33,0,16.39-7.92t5.06-25.81q0-17.76-5.06-25.57t-16.39-7.8q-11.32,0-16.27,7.74T1164.61,172.4Z"/><path class="cls-3" d="M1372.35,131.4q0-11.81,7.1-19t18.77-7.15q11.92,0,18.77,7.21t6.86,19.6v82.6q0,12.16-6,18.48t-17.7,6.31q-11.2,0-17.17-6t-6.19-17.59q-7.87,12.53-19.08,18.6t-26.57,6.08q-14.55,0-25.21-6a38,38,0,0,1-16-17.05,52.11,52.11,0,0,1-4.53-15.61Q1284,192.9,1284,174.9V134.14q0-14.31,6.43-21.57t19-7.27q12.64,0,19.37,7.39t6.73,21.45v40.53q0,14.78,3.94,20.44t13.59,5.66q9.65,0,14.48-6.56t4.82-19.78Z"/><path class="cls-3" d="M1511.57,242q-29.33,0-46.91-8.59T1447.08,211a16.54,16.54,0,0,1,5-12.28,17.14,17.14,0,0,1,12.57-4.89q8.48,0,19.08,8.59c.47.4.87.71,1.19.95q7.62,6,13.29,8.1a34.49,34.49,0,0,0,12.33,2.15q8.94,0,14-3t5.06-8.4q0-8.7-18.83-12.87c-1.19-.24-2.11-.44-2.74-.6q-34.92-7.51-46.48-16.45t-11.57-25.51q0-20.61,16.81-32.12t47-11.5q28.24,0,44.52,7.63t16.27,20.62a12.8,12.8,0,0,1-4.35,10.13q-4.35,3.81-11.5,3.81-7.51,0-18.24-6.19c-1.67-1-2.94-1.67-3.81-2.15a45.75,45.75,0,0,0-10.73-4.47,44.35,44.35,0,0,0-11.2-1.37q-7.28,0-11,2.38a8,8,0,0,0-3.69,7.16q0,7,18.23,11.2c2.94.64,5.2,1.15,6.79,1.55q34.1,7.86,44.82,17.1t10.73,26.76q0,20.63-18.48,32.66T1511.57,242Z"/><path class="cls-3" d="M1650.42,184q.46,13.11,6.91,19.49t19.43,6.38a34.34,34.34,0,0,0,9.36-1.26,49.38,49.38,0,0,0,9.83-4.11q1.66-.94,4.77-3,10.24-6.55,17.28-6.55a16.93,16.93,0,0,1,11.74,4.11,13.53,13.53,0,0,1,4.59,10.55q0,13.93-17.58,23.18T1671.4,242q-33.37,0-53-18.48t-19.61-49.94q0-32.65,20-51.55t54.47-18.89a72.65,72.65,0,0,1,27.65,5.19,67,67,0,0,1,22.89,15.55,62.92,62.92,0,0,1,12.81,19.43,56,56,0,0,1,4.71,22.05q0,9.76-5.3,14.12T1719,183.84Zm0-26h45.89q-.84-11.92-6.74-18t-16.74-6.08q-10.14,0-16,6.38T1650.42,158Z"/><path class="cls-4" d="M353.71,372.17V310h8.23v25.54h32.33V310h8.23v62.19h-8.23V342.85H361.94v29.32Z"/><path class="cls-4" d="M414.68,341.88q0-15.48,8.31-24.25t21.47-8.75A29.82,29.82,0,0,1,460,313a27,27,0,0,1,10.54,11.47,37.29,37.29,0,0,1,3.62,16.7,36.68,36.68,0,0,1-3.81,16.92,26.08,26.08,0,0,1-10.82,11.31,30.91,30.91,0,0,1-15.1,3.84,29.48,29.48,0,0,1-15.7-4.24,27.32,27.32,0,0,1-10.48-11.59A35.13,35.13,0,0,1,414.68,341.88Zm8.48.13q0,11.24,6,17.71a21.08,21.08,0,0,0,30.46-.07q6-6.52,6-18.53a31.85,31.85,0,0,0-2.57-13.26,19.66,19.66,0,0,0-7.51-8.78A20.33,20.33,0,0,0,444.5,316a21.06,21.06,0,0,0-15,6Q423.16,328,423.16,342Z"/><path class="cls-4" d="M485.93,372.17V310h12.39L513,354q2,6.15,3,9.21,1.05-3.41,3.31-10L534.21,310h11.07v62.19h-7.94V320.12l-18.07,52.05h-7.42l-18-52.94v52.94Z"/><path class="cls-4" d="M560.2,372.17V310h45v7.34H568.43v19h34.41v7.3H568.43v21.17h38.18v7.34Z"/><path class="cls-4" d="M630.28,372.17,613.78,310h8.44l9.46,40.76q1.53,6.42,2.63,12.73,2.38-10,2.8-11.5L649,310h9.92l8.91,31.47a166.2,166.2,0,0,1,4.84,22q1.18-5.89,3.09-13.53l9.76-40h8.27l-17,62.19h-7.93l-13.11-47.39q-1.65-5.94-1.95-7.29c-.65,2.85-1.26,5.29-1.83,7.29l-13.19,47.39Z"/><path class="cls-4" d="M692,372.17,715.87,310h8.87l25.45,62.19h-9.38l-7.25-18.84h-26l-6.83,18.84Zm17.94-25.54H731l-6.49-17.22c-2-5.24-3.45-9.53-4.41-12.9a79.24,79.24,0,0,1-3.35,11.88Z"/><path class="cls-4" d="M758.61,372.17V310h27.57q8.33,0,12.65,1.67a13.82,13.82,0,0,1,6.91,5.92,17.61,17.61,0,0,1,2.59,9.38A15.61,15.61,0,0,1,804,338.1q-4.27,4.54-13.23,5.77a21.29,21.29,0,0,1,5,3.1,42.34,42.34,0,0,1,6.83,8.27l10.82,16.93H803.07l-8.23-12.94c-2.41-3.73-4.38-6.59-5.94-8.57a18.75,18.75,0,0,0-4.18-4.16,12.36,12.36,0,0,0-3.75-1.65,24.52,24.52,0,0,0-4.58-.3h-9.55v27.62Zm8.23-34.75h17.69a26.47,26.47,0,0,0,8.82-1.16,9.37,9.37,0,0,0,4.84-3.74,10.08,10.08,0,0,0,1.65-5.57,9.27,9.27,0,0,0-3.2-7.26q-3.2-2.83-10.12-2.84H766.84Z"/><path class="cls-4" d="M822.38,372.17V310h45v7.34H830.61v19H865v7.3H830.61v21.17h38.18v7.34Z"/><path class="cls-4" d="M876.13,352.19l7.76-.68a17.26,17.26,0,0,0,2.57,7.66,14,14,0,0,0,6.26,4.83,23.63,23.63,0,0,0,9.54,1.85,23,23,0,0,0,8.32-1.4,11.61,11.61,0,0,0,5.36-3.84,8.87,8.87,0,0,0,1.76-5.33,8.1,8.1,0,0,0-1.69-5.11,12.69,12.69,0,0,0-5.6-3.67,109.32,109.32,0,0,0-11.08-3q-8.57-2.06-12-3.88a16.93,16.93,0,0,1-6.64-5.79,14.19,14.19,0,0,1-2.19-7.74,15.85,15.85,0,0,1,2.68-8.81A16.5,16.5,0,0,1,889,311a29.69,29.69,0,0,1,11.41-2.12,31.28,31.28,0,0,1,12.2,2.22,17.57,17.57,0,0,1,8.12,6.56,18.75,18.75,0,0,1,3.06,9.8l-7.89.59q-.64-5.89-4.31-8.91t-10.84-3q-7.46,0-10.88,2.74a8.21,8.21,0,0,0-3.41,6.59,7,7,0,0,0,2.42,5.52q2.37,2.16,12.4,4.43t13.77,4a18.89,18.89,0,0,1,8,6.34,15.49,15.49,0,0,1,2.58,8.84,16.9,16.9,0,0,1-2.84,9.36,18.67,18.67,0,0,1-8.16,6.83,28.42,28.42,0,0,1-12,2.44,35.73,35.73,0,0,1-14.14-2.46,19.86,19.86,0,0,1-9-7.4A21,21,0,0,1,876.13,352.19Z"/><path class="cls-4" d="M1048.82,347.78v-7.3l26.34,0v23.07a46.53,46.53,0,0,1-12.51,7.28,37.08,37.08,0,0,1-13.24,2.44,35.26,35.26,0,0,1-16.65-3.93A25.93,25.93,0,0,1,1021.45,358a35.8,35.8,0,0,1-3.81-16.59,38.53,38.53,0,0,1,3.79-16.95,25.25,25.25,0,0,1,10.93-11.68,34.16,34.16,0,0,1,16.41-3.82,32.65,32.65,0,0,1,12.2,2.18,20.34,20.34,0,0,1,8.55,6.09,27.17,27.17,0,0,1,4.71,10.18l-7.43,2a22.82,22.82,0,0,0-3.48-7.47,14.24,14.24,0,0,0-5.93-4.35,21.78,21.78,0,0,0-8.57-1.63,25.12,25.12,0,0,0-9.76,1.72,18.12,18.12,0,0,0-6.64,4.52,21.35,21.35,0,0,0-3.92,6.15,32.38,32.38,0,0,0-2.38,12.51,30.46,30.46,0,0,0,2.86,13.91,18.31,18.31,0,0,0,8.34,8.32,25.8,25.8,0,0,0,11.62,2.71,27.62,27.62,0,0,0,10.44-2.05,27,27,0,0,0,7.72-4.39V347.78Z"/><path class="cls-4" d="M1089.5,372.17V310h8.23v62.19Z"/><path class="cls-4" d="M1113.25,372.17V310h42v7.34h-33.73v19.26h29.19v7.34h-29.19v28.25Z"/><path class="cls-4" d="M1183.78,372.17V317.32h-20.49V310h49.29v7.34H1192v54.85Z"/><path class="cls-4" d="M1218.1,352.19l7.76-.68a17.13,17.13,0,0,0,2.57,7.66,14,14,0,0,0,6.25,4.83,23.72,23.72,0,0,0,9.55,1.85,22.9,22.9,0,0,0,8.31-1.4,11.69,11.69,0,0,0,5.37-3.84,8.94,8.94,0,0,0,1.76-5.33,8.11,8.11,0,0,0-1.7-5.11,12.63,12.63,0,0,0-5.6-3.67,109.66,109.66,0,0,0-11.07-3q-8.57-2.06-12-3.88a16.9,16.9,0,0,1-6.63-5.79,14.19,14.19,0,0,1-2.19-7.74,15.84,15.84,0,0,1,2.67-8.81A16.57,16.57,0,0,1,1231,311a29.69,29.69,0,0,1,11.41-2.12,31.28,31.28,0,0,1,12.2,2.22,17.62,17.62,0,0,1,8.12,6.56,18.74,18.74,0,0,1,3,9.8l-7.88.59q-.64-5.89-4.31-8.91t-10.84-3q-7.47,0-10.88,2.74a8.19,8.19,0,0,0-3.42,6.59,7.08,7.08,0,0,0,2.42,5.52q2.39,2.16,12.41,4.43t13.77,4a18.8,18.8,0,0,1,8,6.34,15.42,15.42,0,0,1,2.59,8.84,17,17,0,0,1-2.84,9.36,18.76,18.76,0,0,1-8.17,6.83,28.37,28.37,0,0,1-12,2.44,35.82,35.82,0,0,1-14.15-2.46,19.84,19.84,0,0,1-9-7.4A21,21,0,0,1,1218.1,352.19Z"/><path class="cls-4" d="M1379.46,372.17,1355.36,310h8.91l16.16,45.18q2,5.43,3.27,10.18,1.44-5.1,3.35-10.18l16.8-45.18h8.4l-24.35,62.19Z"/><path class="cls-4" d="M1408.47,372.17,1432.36,310h8.86l25.46,62.19h-9.38l-7.25-18.84h-26l-6.83,18.84Zm18-25.54h21.08L1441,329.41c-2-5.24-3.45-9.53-4.41-12.9a79.24,79.24,0,0,1-3.35,11.88Z"/><path class="cls-4" d="M1475.1,372.17V310h27.57q8.31,0,12.64,1.67a13.84,13.84,0,0,1,6.92,5.92,17.7,17.7,0,0,1,2.59,9.38,15.61,15.61,0,0,1-4.29,11.15q-4.29,4.54-13.23,5.77a21.5,21.5,0,0,1,5,3.1,42.7,42.7,0,0,1,6.83,8.27l10.82,16.93h-10.35l-8.23-12.94q-3.61-5.6-5.94-8.57a18.75,18.75,0,0,0-4.18-4.16,12.3,12.3,0,0,0-3.76-1.65,24.44,24.44,0,0,0-4.58-.3h-9.54v27.62Zm8.23-34.75H1501a26.47,26.47,0,0,0,8.82-1.16,9.41,9.41,0,0,0,4.84-3.74,10.08,10.08,0,0,0,1.65-5.57,9.3,9.3,0,0,0-3.2-7.26q-3.21-2.83-10.12-2.84h-19.68Z"/><path class="cls-4" d="M1539.43,372.17V310h8.23v62.19Z"/><path class="cls-4" d="M1563.08,372.17V310h45v7.34h-36.74v19h34.4v7.3h-34.4v21.17h38.18v7.34Z"/><path class="cls-4" d="M1637.59,372.17V317.32H1617.1V310h49.3v7.34h-20.58v54.85Z"/><path class="cls-4" d="M1696.67,372.17V345.82l-24-35.84h10L1695,328.73q3.39,5.26,6.32,10.52,2.81-4.87,6.79-11L1720.13,310h9.58l-24.81,35.84v26.35Z"/></svg>